<svg width="35" height="35" viewBox="0 0 35 35" fill="none" xmlns="http://www.w3.org/2000/svg">
<path d="M27.5941 17.8627C30.3213 17.8627 32.533 15.6598 32.533 12.9414C32.533 10.2236 30.3213 8.02002 27.5941 8.02002C24.8648 8.02002 22.6528 10.224 22.6528 12.9414C22.6525 15.6598 24.8648 17.8627 27.5941 17.8627Z" fill="#FF7A00"/>
<path d="M16.4661 18.7742C18.9216 18.7742 20.9121 16.791 20.9121 14.3446C20.9121 11.8982 18.9216 9.91504 16.4661 9.91504C14.0106 9.91504 12.02 11.8982 12.02 14.3446C12.02 16.791 14.0106 18.7742 16.4661 18.7742Z" fill="#FF7A00"/>
<path d="M6.37509 19.5942C8.58464 19.5942 10.3766 17.8106 10.3766 15.6091C10.3766 13.4069 8.58464 11.6226 6.37509 11.6226C4.16484 11.6226 2.37354 13.4069 2.37354 15.6091C2.37354 17.8109 4.16449 19.5942 6.37509 19.5942Z" fill="#FF7A00"/>
<path d="M6.3748 20.5049C3.8373 20.5049 1.97705 22.7319 1.97705 25.0325V26.5812C1.97705 26.8003 2.15625 26.9802 2.37675 26.9802H10.3718C10.593 26.9802 10.7722 26.8003 10.7722 26.5812V25.0325C10.7722 22.7319 8.91195 20.5049 6.3748 20.5049Z" fill="#FF7A00"/>
<path d="M16.4663 19.7842C13.647 19.7842 11.5796 22.259 11.5796 24.8158V26.5367C11.5796 26.78 11.7787 26.9802 12.0237 26.9802H20.9074C21.0252 26.9803 21.1382 26.9336 21.2216 26.8505C21.305 26.7673 21.352 26.6545 21.3523 26.5367V24.8158C21.3526 22.2594 19.2855 19.7842 16.4663 19.7842Z" fill="#FF7A00"/>
<path d="M27.5937 18.9849C24.4612 18.9849 22.1646 21.7345 22.1646 24.5758V26.4875C22.1646 26.758 22.3858 26.9799 22.6581 26.9799H32.528C32.8017 26.9799 33.0229 26.7577 33.0229 26.4875V24.5758C33.0229 21.7348 30.7262 18.9849 27.5937 18.9849Z" fill="#FF7A00"/>
</svg>
