<svg width="18" height="18" viewBox="0 0 18 18" fill="none" xmlns="http://www.w3.org/2000/svg">
<path d="M16.875 15.8823H1.125C0.50368 15.8823 0 16.3564 0 16.9411C0 17.5259 0.50368 18 1.125 18H16.875C17.4963 18 18 17.5259 18 16.9411C18 16.3564 17.4963 15.8823 16.875 15.8823Z" fill="black" fill-opacity="0.7"/>
<path d="M0 14.8235L0 16.9412C0 17.5259 0.50368 18 1.125 18C1.74632 18 2.25 17.5259 2.25 16.9412V14.8235C2.25 14.2388 1.74632 13.7647 1.125 13.7647C0.50368 13.7647 0 14.2388 0 14.8235Z" fill="black" fill-opacity="0.7"/>
<path d="M15.75 14.8235V16.9412C15.75 17.5259 16.2537 18 16.875 18C17.4963 18 18 17.5259 18 16.9412V14.8235C18 14.2388 17.4963 13.7647 16.875 13.7647C16.2537 13.7647 15.75 14.2388 15.75 14.8235Z" fill="black" fill-opacity="0.7"/>
<path d="M9.00013 12.7057C8.76689 12.7074 8.53888 12.6408 8.34763 12.5152L3.84763 9.52927C3.60509 9.36734 3.44054 9.12162 3.38994 8.84583C3.33935 8.57004 3.40683 8.28661 3.57763 8.05751C3.66289 7.94299 3.7714 7.84551 3.89691 7.77068C4.02242 7.69585 4.16243 7.64516 4.30886 7.62153C4.45529 7.59791 4.60525 7.60181 4.75007 7.63302C4.89489 7.66424 5.03171 7.72214 5.15263 7.80339L9.00013 10.334L12.8251 7.62339C13.0638 7.4549 13.3639 7.38255 13.6592 7.42227C13.9546 7.46198 14.2211 7.6105 14.4001 7.83515C14.5791 8.05981 14.656 8.34219 14.6138 8.62019C14.5716 8.89818 14.4138 9.14902 14.1751 9.31751L9.67513 12.494C9.4804 12.6314 9.24354 12.7057 9.00013 12.7057Z" fill="black" fill-opacity="0.7"/>
<path d="M9 10.5882C8.70163 10.5882 8.41548 10.4767 8.20451 10.2781C7.99353 10.0795 7.875 9.81023 7.875 9.52941V1.05882C7.875 0.778006 7.99353 0.50869 8.20451 0.310122C8.41548 0.111554 8.70163 0 9 0C9.29837 0 9.58452 0.111554 9.79549 0.310122C10.0065 0.50869 10.125 0.778006 10.125 1.05882V9.52941C10.125 9.81023 10.0065 10.0795 9.79549 10.2781C9.58452 10.4767 9.29837 10.5882 9 10.5882Z" fill="black" fill-opacity="0.7"/>
</svg>
