<svg width="19" height="18" viewBox="0 0 19 18" fill="none" xmlns="http://www.w3.org/2000/svg">
<path d="M3.75 1.00047H7.214C7.40402 1.00053 7.58694 1.07271 7.72579 1.20244C7.86464 1.33217 7.94907 1.50977 7.96203 1.69935C7.97498 1.88893 7.91548 2.07636 7.79557 2.22377C7.67565 2.37117 7.50425 2.46757 7.316 2.49347L7.214 2.50047H3.75C3.17987 2.5004 2.63098 2.71676 2.21425 3.10584C1.79751 3.49491 1.54402 4.02768 1.505 4.59647L1.5 4.75047V14.2505C1.49993 14.8206 1.7163 15.3695 2.10537 15.7862C2.49444 16.203 3.02721 16.4564 3.596 16.4955L3.75 16.5005H13.25C13.8201 16.5005 14.369 16.2842 14.7858 15.8951C15.2025 15.506 15.456 14.9733 15.495 14.4045L15.5 14.2505V13.7525C15.4983 13.5612 15.5698 13.3765 15.6998 13.2362C15.8298 13.0959 16.0085 13.0105 16.1994 12.9976C16.3902 12.9847 16.5788 13.0452 16.7265 13.1668C16.8742 13.2883 16.9699 13.4617 16.994 13.6515L17 13.7525V14.2505C17.0001 15.2105 16.632 16.1339 15.9716 16.8307C15.3111 17.5274 14.4086 17.9443 13.45 17.9955L13.25 18.0005H3.75C2.79 18.0006 1.86653 17.6325 1.16981 16.972C0.473098 16.3116 0.0562 15.4091 0.00500013 14.4505L1.51734e-08 14.2505V4.75047C-8.629e-05 3.79047 0.368002 2.867 1.02844 2.17028C1.68888 1.47356 2.59137 1.05667 3.55 1.00547L3.75 1.00047H7.214H3.75ZM11.503 3.54447V0.750467C11.5029 0.612512 11.5409 0.477207 11.6127 0.359435C11.6846 0.241662 11.7875 0.145986 11.9102 0.0829299C12.0329 0.0198741 12.1706 -0.00811767 12.3082 0.0020335C12.4458 0.0121847 12.5779 0.0600855 12.69 0.140467L12.772 0.209467L18.766 5.95947C19.046 6.22747 19.072 6.65947 18.843 6.95647L18.766 7.04147L12.772 12.7935C12.6725 12.889 12.5486 12.9553 12.4139 12.9851C12.2792 13.0148 12.1389 13.0068 12.0085 12.9619C11.878 12.917 11.7625 12.8371 11.6745 12.7308C11.5866 12.6245 11.5296 12.496 11.51 12.3595L11.503 12.2525V9.45047L11.182 9.44447C8.524 9.43647 6.252 10.5275 4.317 12.7455C3.821 13.3135 2.892 12.8775 3.011 12.1335C3.838 6.99347 6.611 4.08847 11.201 3.57447L11.503 3.54447V0.750467V3.54447Z" fill="black" fill-opacity="0.7"/>
</svg>
