<svg width="50" height="50" viewBox="0 0 50 50" fill="none" xmlns="http://www.w3.org/2000/svg">
<circle cx="25" cy="25" r="25" fill="#FCFCFC"/>
<path d="M36.99 16H13V34H37L36.99 16ZM21 19C22.66 19 24 20.34 24 22C24 23.66 22.66 25 21 25C19.34 25 18 23.66 18 22C18 20.34 19.34 19 21 19ZM27 31H15V30C15 28 19 26.9 21 26.9C23 26.9 27 28 27 30V31ZM30.85 27H32.49L34 29L32.01 30.99C30.6852 29.9972 29.7255 28.5945 29.28 27C29.1 26.36 29 25.69 29 25C29 24.31 29.1 23.64 29.28 23C29.7228 21.4043 30.6831 20.0008 32.01 19.01L34 21L32.49 23H30.85C30.63 23.63 30.5 24.3 30.5 25C30.5 25.7 30.63 26.37 30.85 27Z" fill="#20B038"/>
</svg>
