<svg width="50" height="50" viewBox="0 0 50 50" fill="none" xmlns="http://www.w3.org/2000/svg">
<circle cx="25" cy="25" r="25" fill="#FCFCFC"/>
<path d="M25 12C30.5231 12 35 16.6063 35 22.2889C35 26.6366 32.0308 31.3748 26.1692 36.5541C25.8433 36.8422 25.4278 37.0004 24.9981 37C24.5684 36.9996 24.1531 36.8406 23.8277 36.552L23.44 36.2059C17.8379 31.1616 15 26.5396 15 22.2889C15 16.6063 19.4769 12 25 12ZM25 18.3316C23.9799 18.3316 23.0017 18.7486 22.2804 19.4907C21.5591 20.2328 21.1538 21.2394 21.1538 22.2889C21.1538 23.3384 21.5591 24.345 22.2804 25.0871C23.0017 25.8293 23.9799 26.2462 25 26.2462C26.0201 26.2462 26.9983 25.8293 27.7196 25.0871C28.4409 24.345 28.8462 23.3384 28.8462 22.2889C28.8462 21.2394 28.4409 20.2328 27.7196 19.4907C26.9983 18.7486 26.0201 18.3316 25 18.3316Z" fill="#C5221F"/>
</svg>
